<?xml version="1.0" encoding="utf-8"?>
<!-- Generator: Adobe Illustrator 25.2.3, SVG Export Plug-In . SVG Version: 6.00 Build 0)  -->
<svg version="1.1" id="Capa_1" xmlns="http://www.w3.org/2000/svg" xmlns:xlink="http://www.w3.org/1999/xlink" x="0px" y="0px"
	 viewBox="0 0 368.5 368.5" style="enable-background:new 0 0 368.5 368.5;" xml:space="preserve">
<style type="text/css">
	.st0{fill:#FFFFFF;}
</style>
<path class="st0" d="M184.16,0c101.9-0.02,184.37,82.47,184.34,184.38c-0.03,101.72-82.58,184.15-184.39,184.12
	C82.31,368.47-0.05,285.89,0,183.88C0.05,82.46,82.61,0.02,184.16,0z M184.15,345.46c88.72,0.1,161.09-72.03,161.31-160.78
	c0.22-88.93-72.07-161.51-160.96-161.61c-88.89-0.1-161.25,72.02-161.43,160.9C22.89,272.87,95.19,345.37,184.15,345.46z"/>
<path class="st0" d="M80.7,120.45c0-3.07-0.41-6.21,0.1-9.18c0.76-4.41,2.57-8.42,6.06-11.6c3.97-3.62,7.74-7.46,11.42-11.38
	c8.84-9.39,23.49-10.47,34.67-1.66c5.2,4.1,8.72,9.34,10.36,15.89c2.05,8.18,4.54,16.24,6.55,24.43c2.27,9.23,0.13,17.49-6.35,24.5
	c-2.5,2.7-5.15,5.28-7.82,7.81c-1.13,1.07-1.5,2.04-1,3.6c10.94,34.25,33.28,57.45,67.07,69.8c4.36,1.59,7.4,1.44,10.19-2.43
	c1.33-1.84,3.17-3.33,4.84-4.91c7.22-6.8,15.68-9.03,25.28-6.55c8.61,2.23,17.2,4.53,25.73,7.01c14.81,4.3,25.85,22.62,16.86,38.73
	c-0.96,1.72-2.25,3.3-3.62,4.72c-4.27,4.41-8.68,8.69-12.99,13.06c-3.72,3.77-8.41,5.53-13.49,5.51
	c-38.69-0.18-73.76-11.65-104.6-35.01c-36.6-27.72-58.68-64.58-66.85-109.71c-1.35-7.45-1.86-15.06-2.76-22.6
	C80.46,120.48,80.58,120.47,80.7,120.45z"/>
</svg>
