<?xml version="1.0" encoding="utf-8"?>
<!-- Generator: Adobe Illustrator 25.2.3, SVG Export Plug-In . SVG Version: 6.00 Build 0)  -->
<svg version="1.1" id="Capa_1" xmlns="http://www.w3.org/2000/svg" xmlns:xlink="http://www.w3.org/1999/xlink" x="0px" y="0px"
	 viewBox="0 0 368.5 368.5" style="enable-background:new 0 0 368.5 368.5;" xml:space="preserve">
<style type="text/css">
	.st0{fill:#FFFFFF;}
</style>
<path class="st0" d="M184.16,0C82.61,0.02,0.05,82.46,0,183.88C-0.05,285.89,82.31,368.47,184.12,368.5
	c101.81,0.03,184.36-82.4,184.39-184.12C368.53,82.47,286.06-0.02,184.16,0z M184.15,345.46c-88.95-0.1-161.26-72.59-161.08-161.49
	C23.25,95.09,95.61,22.98,184.5,23.07c88.89,0.1,161.18,72.68,160.96,161.61C345.24,273.43,272.87,345.56,184.15,345.46z"/>
<path class="st0" d="M184.31,111.2c22.93,0,45.85-0.03,68.78,0.02c7.87,0.02,14.53,3.05,20.08,8.58c5.86,5.85,8.57,13.01,8.58,21.19
	c0.04,28.78,0.05,57.57-0.01,86.35c-0.02,10.87-4.56,19.47-13.68,25.47c-4.47,2.94-9.49,4.48-14.86,4.49
	c-45.95,0.03-91.91,0.05-137.86,0c-13.81-0.01-25.99-10.62-28.2-24.36c-0.25-1.55-0.37-3.14-0.37-4.71
	c-0.02-29.5-0.12-59,0.04-88.49c0.05-10.3,4.86-18.32,13.44-23.98c4.88-3.22,10.31-4.61,16.19-4.59
	C139.07,111.24,161.69,111.2,184.31,111.2z M184.21,198.34c21.59-22.5,43.08-44.89,64.77-67.5c-43.37,0-86.28,0-129.55,0
	C141.13,153.44,162.6,175.82,184.21,198.34z M248.72,237.65c-12.64-13.17-25-26.05-37.4-38.96c-0.39,0.36-0.67,0.58-0.91,0.83
	c-6.64,6.88-13.25,13.79-19.94,20.62c-3.28,3.35-9.14,3.37-12.45,0.05c-4.77-4.79-9.38-9.74-14.14-14.54
	c-2.25-2.27-4.69-4.34-7.15-6.59c-12.05,12.56-24.4,25.43-37.03,38.59C162.88,237.65,205.54,237.65,248.72,237.65z M262.05,145.68
	c-12.5,13.03-24.77,25.81-37.15,38.71c12.37,12.89,24.63,25.66,37.15,38.71C262.05,197.18,262.05,171.68,262.05,145.68z
	 M106.34,223.12c12.55-13.07,24.83-25.87,37.17-38.73c-12.43-12.95-24.68-25.71-37.17-38.73
	C106.34,171.64,106.34,197.14,106.34,223.12z"/>
</svg>
